<?xml version="1.0" encoding="UTF-8"?>
<!DOCTYPE svg PUBLIC "-//W3C//DTD SVG 1.1//EN" "http://www.w3.org/Graphics/SVG/1.1/DTD/svg11.dtd">
<!-- Creator: CorelDRAW X6 -->
<svg xmlns="http://www.w3.org/2000/svg" xml:space="preserve" width="256px" height="256px" version="1.1" style="shape-rendering:geometricPrecision; text-rendering:geometricPrecision; image-rendering:optimizeQuality; fill-rule:evenodd; clip-rule:evenodd"
viewBox="0 0 256 256"
 xmlns:xlink="http://www.w3.org/1999/xlink">
 <defs>
  <style type="text/css">
   <![CDATA[
    .fil1 {fill:#393185;fill-rule:nonzero}
    .fil0 {fill:url(#id0);fill-rule:nonzero}
   ]]>
  </style>
  <linearGradient id="id0" gradientUnits="objectBoundingBox" x1="16.4553%" y1="126.381%" x2="83.5447%" y2="0%">
   <stop offset="0" style="stop-color:#002677"/>
   <stop offset="1" style="stop-color:#3F7D78"/>
  </linearGradient>
 </defs>
 <g id="Слой_x0020_1">
  <metadata id="CorelCorpID_0Corel-Layer"/>
  <path class="fil0" d="M60 42l0 4c-4,1 -8,2 -10,4 -3,2 -4,4 -6,6 -1,3 -2,5 -2,8 0,4 1,9 2,15 1,7 2,12 2,17 0,5 -1,10 -4,14 -3,5 -7,8 -11,11 -3,2 -8,4 -15,6 7,2 13,5 16,7 5,3 9,7 11,12 3,4 4,9 4,13 0,4 -1,8 -2,15 -2,6 -2,12 -2,16 0,3 1,6 2,9 1,3 3,5 6,6 2,2 6,3 11,4l0 4c-6,0 -10,0 -12,-1 -5,-1 -9,-3 -14,-6 -4,-3 -8,-7 -10,-11 -2,-4 -4,-9 -4,-13 0,-4 1,-10 3,-18 1,-6 2,-11 2,-15 0,-6 -2,-10 -5,-14 -3,-3 -7,-5 -13,-6l0 -6c4,-1 8,-2 10,-4 2,-2 4,-4 6,-7 2,-3 2,-6 2,-10 0,-4 -1,-9 -2,-14 -2,-8 -3,-13 -3,-17 0,-4 1,-7 3,-11 2,-4 4,-7 8,-10 3,-3 7,-5 12,-7 4,-2 10,-3 17,-3z"/>
  <path id="1" class="fil0" d="M196 214l0 -4c4,-1 8,-2 10,-4 2,-2 4,-4 6,-6 1,-3 2,-5 2,-8 0,-4 -1,-9 -2,-15 -2,-7 -2,-12 -2,-17 0,-5 1,-10 4,-14 3,-5 7,-8 11,-11 3,-2 8,-4 15,-6 -7,-2 -13,-5 -16,-7 -5,-3 -9,-7 -11,-12 -3,-4 -4,-9 -4,-13 0,-4 1,-8 2,-15 1,-6 2,-12 2,-16 0,-3 -1,-6 -2,-9 -1,-3 -3,-5 -6,-6 -2,-2 -6,-3 -10,-4l0 -4c6,0 9,0 12,1 5,1 9,3 14,6 4,3 8,7 10,11 2,4 4,9 4,13 0,4 -1,10 -3,18 -1,6 -2,11 -2,15 0,6 2,10 5,14 3,3 7,5 13,6l0 6c-4,1 -8,2 -10,4 -2,2 -4,4 -6,7 -2,3 -2,6 -2,10 0,4 1,9 2,14 2,8 3,13 3,17 0,4 -1,7 -3,11 -2,4 -4,7 -8,10 -3,3 -7,5 -11,7 -4,2 -10,2 -17,3z"/>
  <polygon class="fil1" points="64,138 64,118 84,118 84,138 "/>
  <polygon id="1" class="fil1" points="118,138 118,118 138,118 138,138 "/>
  <polygon id="2" class="fil1" points="172,138 172,118 192,118 192,138 "/>
 </g>
</svg>
