<?xml version="1.0" encoding="UTF-8"?>
<!DOCTYPE svg PUBLIC "-//W3C//DTD SVG 1.1//EN" "http://www.w3.org/Graphics/SVG/1.1/DTD/svg11.dtd">
<!-- Creator: CorelDRAW X6 -->
<svg xmlns="http://www.w3.org/2000/svg" xml:space="preserve" width="800px" height="300px" version="1.1" style="shape-rendering:geometricPrecision; text-rendering:geometricPrecision; image-rendering:optimizeQuality; fill-rule:evenodd; clip-rule:evenodd"
viewBox="0 0 800 300"
 xmlns:xlink="http://www.w3.org/1999/xlink">
 <defs>
  <style type="text/css">
   <![CDATA[
    .str0 {stroke:#393185;stroke-width:5.90552;stroke-dasharray:5.905523 5.905523}
    .fil3 {fill:none}
    .fil0 {fill:url(#id0);fill-rule:nonzero}
    .fil1 {fill:url(#id1);fill-rule:nonzero}
    .fil2 {fill:url(#id2);fill-rule:nonzero}
   ]]>
  </style>
  <linearGradient id="id0" gradientUnits="objectBoundingBox" x1="22.8695%" y1="173.004%" x2="77.1305%" y2="0%">
   <stop offset="0" style="stop-color:#002677"/>
   <stop offset="1" style="stop-color:#3F7D78"/>
  </linearGradient>
  <linearGradient id="id1" gradientUnits="objectBoundingBox" xlink:href="#id0" x1="22.9911%" y1="174.797%" x2="77.0089%" y2="0%">
  </linearGradient>
  <linearGradient id="id2" gradientUnits="objectBoundingBox" xlink:href="#id0" x1="12.623%" y1="115.598%" x2="87.377%" y2="0%">
  </linearGradient>
 </defs>
 <g id="Слой_x0020_1">
  <metadata id="CorelCorpID_0Corel-Layer"/>
  <g id="_357239760">
   <path class="fil0" d="M143 18l0 7c-7,1 -12,3 -16,6 -4,3 -7,6 -9,10 -2,4 -3,8 -3,12 0,6 1,14 3,24 2,10 3,19 3,26 0,8 -2,15 -7,22 -4,7 -10,13 -18,17 -5,3 -13,6 -23,9 11,4 20,7 25,10 8,5 13,11 17,18 4,7 6,14 6,20 0,5 -1,13 -3,23 -2,10 -3,18 -3,25 0,5 1,9 3,13 2,4 5,7 9,10 4,2 9,4 16,6l0 7c-9,0 -15,0 -18,-1 -7,-2 -14,-5 -21,-9 -7,-5 -12,-10 -15,-17 -4,-7 -6,-13 -6,-20 0,-6 2,-15 5,-27 2,-9 3,-16 3,-23 0,-9 -3,-16 -8,-21 -5,-5 -11,-8 -20,-9l0 -9c6,-1 12,-3 15,-6 4,-3 7,-6 9,-11 2,-5 3,-10 3,-15 0,-6 -1,-14 -3,-22 -3,-12 -4,-20 -4,-26 0,-6 1,-11 4,-17 3,-6 7,-11 12,-16 5,-5 11,-8 18,-11 7,-2 15,-4 26,-4z"/>
   <path id="1" class="fil0" d="M657 282l0 -7c7,-1 12,-3 16,-6 4,-3 7,-6 9,-10 2,-4 3,-8 3,-12 0,-6 -1,-14 -3,-24 -2,-10 -4,-19 -4,-26 0,-8 2,-15 7,-22 4,-7 10,-13 18,-17 5,-3 13,-6 23,-9 -11,-4 -20,-7 -25,-11 -8,-5 -13,-11 -17,-18 -4,-7 -6,-14 -6,-21 0,-5 1,-13 3,-23 2,-10 3,-18 3,-25 0,-5 -1,-9 -3,-13 -2,-4 -5,-7 -9,-10 -4,-2 -9,-4 -16,-6l0 -7c9,0 15,0 18,1 7,2 14,5 21,9 7,5 12,10 15,17 4,7 6,13 6,20 0,6 -1,15 -4,27 -2,9 -3,16 -3,23 0,9 3,16 8,22 5,5 11,8 20,9l0 9c-7,1 -12,3 -16,5 -4,3 -7,6 -9,11 -2,5 -4,10 -4,15 0,6 1,14 3,22 3,12 4,20 4,26 0,6 -1,11 -4,17 -3,6 -7,11 -12,16 -5,5 -11,8 -18,10 -7,2 -15,4 -26,4z"/>
   <path class="fil1" d="M134 34l70 0c13,0 23,1 30,4 7,3 12,7 16,12 4,5 5,11 5,18 0,7 -2,13 -5,19 -4,6 -9,10 -15,13 -7,3 -16,5 -27,5l36 44c3,4 5,6 6,7 2,2 5,4 7,5 3,1 5,2 8,2l2 0 0 8 -31 0 -50 -65 -17 0 0 42c0,5 0,8 0,9 1,2 2,4 3,5 2,1 5,1 9,1l3 0 0 8 -52 0 0 -8 5 0c4,0 6,0 7,-1 1,0 2,-1 3,-2 1,-1 2,-3 2,-4 0,-1 0,-4 0,-10l0 -89c0,-4 0,-7 -1,-9 -1,-2 -2,-3 -3,-4 -1,-1 -4,-1 -7,-1l-6 0 0 -8zm35 11l0 51 28 0c9,0 16,-1 20,-2 5,-2 10,-4 13,-9 3,-4 5,-9 5,-16 0,-6 -1,-10 -3,-14 -2,-4 -5,-7 -9,-8 -4,-2 -10,-3 -18,-3l-35 0z"/>
   <path id="1" class="fil1" d="M278 34l111 0 13 36 -9 3c-2,-6 -5,-10 -7,-14 -3,-3 -6,-6 -9,-9 -4,-2 -7,-4 -11,-5 -4,-1 -10,-1 -20,-1l-33 0 0 50 16 0c6,0 11,-1 14,-3 3,-2 5,-5 6,-8 1,-2 1,-6 1,-12l0 -2 10 0 0 60 -10 0 0 -5c0,-5 0,-8 -1,-10 -1,-2 -2,-4 -4,-6 -2,-2 -4,-3 -6,-4 -2,-1 -6,-1 -11,-1l-16 0 0 44c0,5 0,7 1,8 0,1 1,2 2,2 1,0 4,1 8,1l21 0c11,0 20,-1 27,-4 6,-3 12,-7 17,-13 4,-4 8,-11 11,-19l9 3 -15 43 -115 0 0 -8 4 0c5,0 7,0 8,-1 2,-1 3,-2 4,-4 1,-1 1,-4 1,-8l0 -94c0,-4 0,-7 -1,-9 -1,-1 -2,-3 -4,-3 -1,0 -5,-1 -12,-1l0 -8z"/>
   <path id="2" class="fil1" d="M514 34l7 0 10 42 -9 3c-6,-12 -13,-21 -23,-28 -8,-6 -17,-8 -26,-8 -6,0 -11,1 -15,3 -5,2 -8,5 -10,8 -2,3 -3,7 -3,10 0,3 1,6 3,9 2,3 4,5 8,8 4,2 9,4 18,7l26 7c3,1 8,3 14,5 6,3 11,5 14,8 3,3 6,6 8,11 2,4 3,9 3,14 0,11 -5,20 -14,28 -9,8 -22,12 -37,12 -8,0 -15,-1 -21,-3 -6,-2 -13,-6 -20,-12l-5 13 -7 0 -9 -49 9 -2c3,9 8,17 13,23 5,6 12,11 18,14 7,3 14,5 20,5 9,0 18,-3 25,-8 6,-5 9,-10 9,-17 0,-6 -2,-11 -6,-14 -4,-4 -12,-7 -23,-11l-24 -7c-14,-4 -23,-9 -29,-15 -6,-6 -8,-13 -8,-21 0,-6 2,-12 5,-17 4,-5 9,-10 17,-13 8,-4 16,-5 25,-5 8,0 15,1 22,4 5,2 9,4 13,8l4 -10z"/>
   <path id="3" class="fil1" d="M557 29l7 0 1 5 83 0 1 -5 7 0 14 40 -9 3c-4,-11 -9,-18 -15,-22 -6,-4 -13,-7 -22,-7 -4,0 -6,0 -7,0 -1,0 -1,1 -2,2 0,1 0,3 0,7l0 94c0,5 0,8 1,9 0,2 1,3 2,4 1,1 2,1 4,2 2,0 5,1 11,1l0 8 -52 0 0 -8c6,0 9,0 11,-1 2,-1 4,-2 5,-4 1,-2 1,-5 1,-10l0 -96c0,-3 0,-5 0,-5 0,-1 -1,-1 -2,-2 -1,0 -2,-1 -5,-1 -7,0 -13,1 -17,3 -4,2 -8,5 -12,9 -4,4 -7,10 -10,17l-9 -3 14 -40z"/>
   <path class="fil2" d="M310 262l9 1c-1,6 -3,11 -7,14 -4,3 -9,5 -14,5 -7,0 -13,-2 -17,-7 -4,-5 -6,-11 -6,-20 0,-6 1,-10 3,-15 2,-4 5,-7 8,-9 4,-2 8,-3 12,-3 6,0 10,1 14,4 4,3 6,7 7,12l-9 1c-1,-3 -2,-6 -4,-8 -2,-2 -5,-3 -8,-3 -4,0 -8,2 -11,5 -3,3 -4,8 -4,15 0,7 1,12 4,15 3,3 6,5 10,5 3,0 6,-1 9,-3 2,-2 4,-5 4,-10z"/>
   <polygon id="1" class="fil2" points="326,281 326,210 334,210 334,281 "/>
   <path id="2" class="fil2" d="M348 220l0 -10 9 0 0 10 -9 0zm0 62l0 -52 9 0 0 52 -9 0z"/>
   <path id="3" class="fil2" d="M406 264l9 1c-1,5 -4,9 -8,12 -4,3 -9,4 -15,4 -8,0 -14,-2 -18,-7 -4,-5 -7,-11 -7,-20 0,-9 2,-15 7,-20 4,-5 10,-7 17,-7 7,0 13,2 17,7 4,5 7,11 7,20 0,1 0,1 0,2l-39 0c0,6 2,10 5,13 3,3 6,5 11,5 3,0 6,-1 8,-3 2,-2 4,-4 5,-8zm-29 -14l29 0c0,-4 -2,-8 -3,-10 -3,-3 -6,-5 -11,-5 -4,0 -7,1 -10,4 -3,3 -4,6 -5,11z"/>
   <path id="4" class="fil2" d="M426 281l0 -52 8 0 0 7c4,-6 9,-8 16,-8 3,0 6,1 9,2 3,1 5,3 6,4 1,2 2,4 3,6 0,2 0,4 0,9l0 32 -9 0 0 -32c0,-4 0,-6 -1,-8 -1,-2 -2,-3 -4,-4 -2,-1 -4,-2 -6,-2 -4,0 -7,1 -10,4 -3,2 -4,7 -4,14l0 28 -9 0z"/>
   <path id="5" class="fil2" d="M501 273l1 8c-2,1 -5,1 -7,1 -3,0 -6,-1 -7,-2 -2,-1 -3,-2 -4,-4 -1,-2 -1,-5 -1,-10l0 -30 -6 0 0 -7 6 0 0 -13 9 -5 0 18 9 0 0 7 -9 0 0 30c0,3 0,4 0,5 0,1 1,1 2,2 1,0 2,1 3,1 1,0 2,0 4,0z"/>
   <line class="fil3 str0" x1="206" y1="192" x2="592" y2= "192" />
  </g>
 </g>
</svg>
